<?xml version="1.0" encoding="utf-8"?>
<!-- Generator: Adobe Illustrator 20.1.0, SVG Export Plug-In . SVG Version: 6.00 Build 0)  -->
<svg version="1.1" id="Layer_1" xmlns="http://www.w3.org/2000/svg" xmlns:xlink="http://www.w3.org/1999/xlink" x="0px" y="0px"
	 viewBox="0 0 599.1 159" enable-background="new 0 0 599.1 159" xml:space="preserve">
<g>
	<g>
		<path fill="#FFFFFF" d="M150,106.8c3.3,15.4,15.7,26.3,33.7,26.3c12.4,0,23.9-5.7,30.4-14.6l19.3,16.1
			c-10.9,14.8-30.2,24.3-53.3,24.3c-35.6,0-60.4-27.2-60.4-60.9c0-33.9,24.8-61.1,60.4-61.1c36.3,0,57.4,26.3,57.4,63
			c0,2.4-0.2,4.8-0.2,6.7H150z M150.2,87.5h58.5c-1.1-13.5-8.3-26.3-28.5-26.3C164.3,61.2,153,72.9,150.2,87.5z"/>
		<path fill="#FFFFFF" d="M266.1,159H233l43.9-61.3l-43.5-58.5h34.4l26.3,35.1l26.3-35.1h34.4l-43.5,58.5l43.9,61.3h-33.3
			l-27.8-35.3L266.1,159z"/>
		<path fill="#FFFFFF" d="M27.4,159V95.5c0-20.3,8.6-30.1,26.4-30.1c17.5,0,26,9.9,26,30.1V159h27.4V89.4c0-30.5-21-50.2-53.5-50.2
			C21.1,39.2,0,58.9,0,89.4V159H27.4z"/>
		<path fill="#FFFFFF" d="M366.9,0v118.7c0,0-2.9,40.3,51.6,40.3h10.6v-24.9h-13.6c0,0-17.7,0.7-17.7-15.5l0.1-54.8h31.2V39H398V0
			H366.9z"/>
	</g>
	<g>
		<path fill="#B0DC00" d="M571.7,39.2v63.5c0,20.3-8.6,30.1-26.4,30.1c-17.5,0-26-9.9-26-30.1V39.2h-27.4v69.6
			c0,30.5,21,50.2,53.5,50.2c32.7,0,53.8-19.7,53.8-50.2V39.2H571.7z"/>
		<rect x="444.4" y="150.1" fill="#B0DC00" width="47.5" height="8.9"/>
	</g>
</g>
<g>
</g>
<g>
</g>
<g>
</g>
<g>
</g>
<g>
</g>
<g>
</g>
<g>
</g>
<g>
</g>
<g>
</g>
<g>
</g>
<g>
</g>
<g>
</g>
<g>
</g>
<g>
</g>
<g>
</g>
</svg>
